<svg xmlns="http://www.w3.org/2000/svg" xmlns:xlink="http://www.w3.org/1999/xlink" id="a" viewBox="0 0 265.47 71.36"><defs><style>.c{fill:none;}.d{fill:#004057;}.e{clip-path:url(#b);}</style><clipPath id="b"><rect class="c" width="265.47" height="71.36"></rect></clipPath></defs><g class="e"><path class="d" d="M52.39,27.15l6.97-15.74h.29l7.03,15.74h-14.29ZM60.86,.62c-.17-.33-.69-.62-.97-.62h-.57c-.29,0-.81,.29-.98,.62l-17.57,38.74c-.34,.76,.12,1.5,.97,1.5h3.6c.69,0,1.15-.46,1.31-.87,1.15-2.65,2.35-5.24,3.5-7.88h18.69l3.56,7.88c.22,.5,.64,.87,1.3,.87h3.63c.84,0,1.3-.73,.95-1.5L60.86,.62ZM133.39,0h-3.63c-.7,0-1.16,.46-1.32,.88l-3.52,7.87-2.23,4.94-7.01,15.77h-.29l-5.37-11.93L117.34,1.52c.35-.76-.11-1.51-.96-1.51h-3.63c-.69,0-1.16,.46-1.33,.88l-3.52,7.87-.91,2.01-.88-2.01-3.57-7.87c-.22-.54-.63-.88-1.32-.88h-3.63c-.85,0-1.31,.75-.97,1.51l7.3,16.11-5.27,11.83h-.29l-7.09-15.77-2.18-4.94-3.57-7.87c-.22-.54-.63-.88-1.32-.88h-3.63c-.85,0-1.31,.75-.96,1.51l17.54,38.7c.17,.37,.69,.65,.96,.65h.59c.29,0,.8-.28,.96-.65l7.28-15.92,7.21,15.92c.17,.37,.69,.65,.96,.65h.59c.29,0,.8-.28,.96-.65L134.36,1.52c.34-.76-.12-1.51-.97-1.51M264.39,0h-3.64c-.62,0-1.07,.52-1.07,1.07V28.5h-.12L235.75,.87C235.01,0,234.6,0,234.03,0h-.45c-.57,0-1.08,.44-1.08,1.03V39.76c0,.58,.51,1.1,1.08,1.1h3.57c.63,0,1.09-.52,1.09-1.1V11.58h.11l23.89,28.46c.68,.81,1.08,.81,1.64,.81h.51c.56,0,1.08-.46,1.08-1.01V1.07c0-.55-.52-1.07-1.08-1.07m-64.29,35.36c-8.06,0-14.68-6.77-14.68-14.89s6.63-14.96,14.68-14.96,14.76,6.9,14.76,14.96-6.63,14.89-14.76,14.89M200.1,0c-11.35,0-20.36,9.12-20.36,20.47s9.01,20.38,20.36,20.38,20.43-9.03,20.43-20.38S211.45,0,200.1,0m-42.9,17.44c-4.73-1.93-7.22-3.93-7.22-7.15,0-2.1,1.64-5.1,6.4-5.1,3.29,0,5.47,1.39,7.68,2.84,.79,.49,1.53,.17,1.99-.58l1.4-2.17c.57-.83,.12-1.65-.33-1.92C166.54,2.96,162.31,0,156.62,0c-9.03,0-12.41,6.09-12.41,10.49,0,6.58,4.52,9.6,10.32,12.05,5.59,2.31,8.55,4.49,8.55,7.89,0,2.88-2.5,5.27-6.42,5.27-4.36,0-6.42-1.7-9.07-3.9-.64-.54-1.46-.29-1.92,.45l-1.46,2.3c-.64,.99-.18,1.38,.33,1.83,.9,.84,5.26,4.49,12.2,4.49,7.37,0,12.63-4.84,12.63-10.71,0-6.95-5.59-10.05-12.17-12.7M16.52,19.83H6.13V5.65h10.39c3.79,0,7.12,3.18,7.12,6.94,0,4.03-3.32,7.24-7.12,7.24m13.18-7.33C29.7,5.55,23.98,0,16.99,0H1.11C.47,0,0,.52,0,1.11V39.76c0,.55,.47,1.1,1.11,1.1h3.79c.58,0,1.11-.55,1.11-1.1v-14.91H14.83l7.65,15.26c.23,.47,.58,.75,1.22,.75h4.38c.99,0,1.4-.92,.99-1.7l-8-14.82c5.08-2.05,8.64-6.47,8.64-11.83"></path><path class="d" d="M223.11,64.9c0,3.6,2.88,6.44,6.46,6.44,2.61,0,4.46-1.17,4.46-1.17,.07-.05,.14-.14,.14-.29v-4.61c0-.18-.14-.34-.32-.34h-3.45c-.2,0-.34,.14-.34,.34v1.42c0,.18,.14,.32,.34,.32h1.44v1.53c-.36,.14-1.13,.45-2.14,.45-2.27,0-4.05-1.89-4.05-4.12s1.78-4.18,4.03-4.18c.99,0,1.94,.36,2.72,1.04,.16,.14,.32,.14,.47,0l1.11-1.17c.14-.14,.13-.36-.02-.5-1.22-1.04-2.77-1.67-4.39-1.67-3.58,0-6.46,2.89-6.46,6.5m-15.17,5.94c0,.18,.16,.34,.34,.34h1.64c.2,0,.34-.16,.34-.34v-7.74h.02l7.52,8.26h.43c.18,0,.34-.14,.34-.32v-12.11c0-.18-.16-.34-.34-.34h-1.65c-.2,0-.34,.16-.34,.34v7.43h-.02l-7.49-7.95h-.45c-.18,0-.34,.14-.34,.32v12.11Zm-7.79,0c0,.18,.16,.34,.34,.34h1.67c.18,0,.34-.16,.34-.34v-11.91c0-.18-.16-.34-.34-.34h-1.67c-.18,0-.34,.16-.34,.34v11.91Zm-15.87-5.94c0,3.6,2.88,6.44,6.46,6.44,2.61,0,4.46-1.17,4.46-1.17,.07-.05,.14-.14,.14-.29v-4.61c0-.18-.14-.34-.32-.34h-3.45c-.2,0-.34,.14-.34,.34v1.42c0,.18,.14,.32,.34,.32h1.44v1.53c-.36,.14-1.13,.45-2.14,.45-2.27,0-4.05-1.89-4.05-4.12s1.78-4.18,4.03-4.18c.99,0,1.94,.36,2.72,1.04,.16,.14,.32,.14,.47,0l1.11-1.17c.14-.14,.13-.36-.02-.5-1.22-1.04-2.77-1.67-4.39-1.67-3.58,0-6.46,2.89-6.46,6.5m-10.58,1.98l1.76-3.96h.05l1.8,3.96h-3.62Zm-3.85,4.3h1.57c.29,0,.45-.18,.52-.36l.88-1.94h5.38l.88,1.94c.13,.25,.25,.36,.52,.36h1.57c.27,0,.41-.23,.31-.47l-5.54-12.11c-.05-.11-.13-.2-.31-.2h-.18c-.16,0-.25,.09-.31,.2l-5.6,12.11c-.11,.23,.04,.47,.31,.47m-12.61-.43c0,.23,.18,.43,.43,.43h1.58c.23,0,.43-.2,.43-.43v-5.49l4.7,5.79c.04,.05,.14,.13,.32,.13h1.96c.36,0,.5-.4,.32-.63l-5.04-6.03,4.7-5.29c.23-.27,.05-.65-.29-.65h-1.8c-.16,0-.27,.09-.34,.18l-4.54,5.11v-4.86c0-.23-.2-.43-.43-.43h-1.58c-.25,0-.43,.2-.43,.43v11.73Zm-15.39-5.85c0,3.6,2.89,6.46,6.49,6.46,1.6,0,3.15-.56,4.37-1.74,.13-.13,.16-.36,.02-.49l-1.12-1.15c-.11-.11-.31-.13-.45,0-.76,.61-1.67,1.03-2.75,1.03-2.3,0-4.03-1.91-4.03-4.16s1.71-4.19,4.01-4.19c1.01,0,2.01,.4,2.77,1.06,.14,.14,.32,.14,.45,0l1.1-1.13c.14-.14,.14-.36-.02-.5-1.22-1.1-2.54-1.67-4.35-1.67-3.6,0-6.49,2.89-6.49,6.49m-10.57,1.98l1.76-3.96h.05l1.8,3.96h-3.62Zm-3.85,4.3h1.57c.29,0,.45-.18,.52-.36l.88-1.94h5.38l.88,1.94c.13,.25,.25,.36,.52,.36h1.57c.27,0,.41-.23,.31-.47l-5.54-12.11c-.05-.11-.13-.2-.31-.2h-.18c-.16,0-.25,.09-.31,.2l-5.6,12.11c-.11,.23,.04,.47,.31,.47m-8.44-6.76v-3.62h2.09c1.01,0,1.85,.76,1.85,1.75,0,1.06-.85,1.87-1.85,1.87h-2.09Zm-2.34,6.42c0,.18,.14,.34,.34,.34h1.65c.18,0,.34-.16,.34-.34v-4.23h2.25c2.2,0,4.01-1.82,4.01-4.05s-1.82-3.98-4.03-3.98h-4.23c-.2,0-.34,.16-.34,.34v11.91Zm-18.27-3.09c0-1.44,1.24-2.03,1.53-2.21l2.68,2.84c-.27,.31-.97,1.06-2.32,1.06-1.06,0-1.89-.7-1.89-1.69m2.07-4.41l-.4-.4c-.54-.58-.96-.99-.94-1.62,0-.67,.5-1.22,1.33-1.22,.94,0,1.53,.67,1.53,1.35,0,1.12-1.26,1.73-1.53,1.89h0Zm-4.21,4.64c0,1.84,1.51,3.38,3.8,3.38s3.6-1.15,3.92-1.53l1.3,1.31c.29,.29,.57,.25,.79,.05l.74-.75c.43-.41,.25-.61,.04-.83l-1.6-1.51c.23-.43,.81-1.57,1.11-2.86,.04-.18,.16-.58-.31-.7l-.99-.29c-.41-.13-.52,.07-.59,.45-.13,.68-.36,1.42-.65,2l-2.07-2.09c.36-.32,2.19-1.42,2.19-3.28,0-1.62-1.38-2.93-3.4-2.93-2.27,0-3.4,1.55-3.4,2.91-.02,1.06,.5,1.84,1.22,2.59l.38,.41v.04c-.32,.2-2.48,1.24-2.48,3.62m-14.83,2.86c0,.18,.16,.34,.34,.34h1.67c.18,0,.34-.16,.34-.34v-10.1h2.75c.2,0,.34-.16,.34-.34v-1.47c0-.18-.14-.34-.34-.34h-7.86c-.2,0-.34,.16-.34,.34v1.47c0,.18,.14,.34,.34,.34h2.75v10.1Zm-17.76,0c0,.18,.16,.34,.34,.34h1.64c.2,0,.34-.16,.34-.34v-7.74h.02l7.52,8.26h.43c.18,0,.34-.14,.34-.32v-12.11c0-.18-.16-.34-.34-.34h-1.65c-.2,0-.34,.16-.34,.34v7.43h-.02l-7.49-7.95h-.45c-.18,0-.34,.14-.34,.32v12.11Zm-7.79,0c0,.18,.16,.34,.34,.34h1.67c.18,0,.34-.16,.34-.34v-11.91c0-.18-.16-.34-.34-.34h-1.67c-.18,0-.34,.16-.34,.34v11.91Zm-11.79-6.51v-3.58h2.93c.96,0,1.78,.79,1.78,1.75,0,1.01-.83,1.84-1.78,1.84h-2.93Zm-2.36,6.51c0,.18,.14,.34,.34,.34h1.65c.18,0,.34-.16,.34-.34v-4.59h2l2.4,4.77c.04,.07,.13,.16,.29,.16h1.89c.31,0,.43-.29,.31-.52l-2.46-4.57c1.57-.63,2.66-1.98,2.66-3.63,0-2.14-1.76-3.87-3.92-3.87h-5.15c-.2,0-.34,.16-.34,.34v11.91Zm-10.48-6.42v-3.62h2.09c1.01,0,1.86,.76,1.86,1.75,0,1.06-.85,1.87-1.86,1.87h-2.09Zm-2.34,6.42c0,.18,.14,.34,.34,.34h1.65c.18,0,.34-.16,.34-.34v-4.23h2.25c2.2,0,4.01-1.82,4.01-4.05s-1.82-3.98-4.03-3.98h-4.23c-.2,0-.34,.16-.34,.34v11.91Z"></path></g></svg>